<svg xmlns="http://www.w3.org/2000/svg">
  <symbol id="compass" viewBox="0 0 24 24"><circle cx="12" cy="12" r="9"/><path d="m15.5 8.5-2.1 4.9-4.9 2.1 2.1-4.9 4.9-2.1Z"/></symbol>
  <symbol id="sparkles" viewBox="0 0 24 24"><path d="m12 3 1.3 3.7L17 8l-3.7 1.3L12 13l-1.3-3.7L7 8l3.7-1.3L12 3Z"/><path d="m18.5 14 .8 2.2 2.2.8-2.2.8-.8 2.2-.8-2.2-2.2-.8 2.2-.8.8-2.2Z"/><path d="m5 14 .7 2 2 .7-2 .7-.7 2-.7-2-2-.7 2-.7.7-2Z"/></symbol>
  <symbol id="briefcase" viewBox="0 0 24 24"><rect x="3" y="7" width="18" height="13" rx="2"/><path d="M8 7V5a2 2 0 0 1 2-2h4a2 2 0 0 1 2 2v2M3 12h18M10 12v2h4v-2"/></symbol>
  <symbol id="users" viewBox="0 0 24 24"><path d="M16 20v-2a4 4 0 0 0-4-4H6a4 4 0 0 0-4 4v2"/><circle cx="9" cy="7" r="4"/><path d="M22 20v-2a4 4 0 0 0-3-3.87M16 3.13a4 4 0 0 1 0 7.75"/></symbol>
  <symbol id="user" viewBox="0 0 24 24"><circle cx="12" cy="8" r="4"/><path d="M4 21a8 8 0 0 1 16 0"/></symbol>
  <symbol id="building" viewBox="0 0 24 24"><path d="M4 21V4a1 1 0 0 1 1-1h10a1 1 0 0 1 1 1v17M16 9h3a1 1 0 0 1 1 1v11M8 7h4M8 11h4M8 15h4M2 21h20"/></symbol>
  <symbol id="graduation" viewBox="0 0 24 24"><path d="m2 9 10-5 10 5-10 5L2 9Z"/><path d="M6 11.5V16c3 3 9 3 12 0v-4.5M22 9v6"/></symbol>
  <symbol id="check" viewBox="0 0 24 24"><path d="m5 12 4 4L19 6"/></symbol>
  <symbol id="clock" viewBox="0 0 24 24"><circle cx="12" cy="12" r="9"/><path d="M12 7v5l3 2"/></symbol>
  <symbol id="map-pin" viewBox="0 0 24 24"><path d="M20 10c0 5-8 11-8 11S4 15 4 10a8 8 0 1 1 16 0Z"/><circle cx="12" cy="10" r="2.5"/></symbol>
  <symbol id="search" viewBox="0 0 24 24"><circle cx="11" cy="11" r="7"/><path d="m20 20-4-4"/></symbol>
  <symbol id="plus" viewBox="0 0 24 24"><path d="M12 5v14M5 12h14"/></symbol>
  <symbol id="file" viewBox="0 0 24 24"><path d="M6 3h8l4 4v14H6V3Z"/><path d="M14 3v5h5M9 13h6M9 17h5"/></symbol>
  <symbol id="external" viewBox="0 0 24 24"><path d="M14 4h6v6M20 4l-9 9"/><path d="M18 13v6a1 1 0 0 1-1 1H5a1 1 0 0 1-1-1V7a1 1 0 0 1 1-1h6"/></symbol>
  <symbol id="filter" viewBox="0 0 24 24"><path d="M4 5h16M7 12h10M10 19h4"/></symbol>
  <symbol id="shield" viewBox="0 0 24 24"><path d="M12 3 20 6v6c0 5-3.4 8-8 9-4.6-1-8-4-8-9V6l8-3Z"/><path d="m8.5 12 2.2 2.2 4.8-5"/></symbol>
  <symbol id="send" viewBox="0 0 24 24"><path d="m3 11 18-8-8 18-2-8-8-2Z"/><path d="m11 13 5-5"/></symbol>
  <symbol id="chevron" viewBox="0 0 24 24"><path d="m9 18 6-6-6-6"/></symbol>
  <symbol id="logout" viewBox="0 0 24 24"><path d="M10 4H5a2 2 0 0 0-2 2v12a2 2 0 0 0 2 2h5M14 8l4 4-4 4M8 12h10"/></symbol>
</svg>
